<svg xmlns="http://www.w3.org/2000/svg" width="32" height="32" viewBox="0 0 32 32" shape-rendering="crispEdges"><rect x="0" y="0" width="32" height="32" fill="#000"/><rect x="1" y="1" width="30" height="30" fill="#c0c0c0"/><rect x="1" y="1" width="30" height="1" fill="#fff"/><rect x="1" y="1" width="1" height="30" fill="#fff"/><rect x="2" y="30" width="29" height="1" fill="#808080"/><rect x="30" y="2" width="1" height="29" fill="#808080"/><rect x="3" y="3" width="26" height="26" fill="#808080"/><rect x="4" y="4" width="25" height="25" fill="#fff"/><rect x="4" y="4" width="24" height="24" fill="#000"/><rect x="16" y="4" width="4" height="4" fill="#a048c8"/><rect x="16" y="4" width="4" height="1" fill="#c98ae6"/><rect x="16" y="5" width="1" height="2" fill="#c98ae6"/><rect x="16" y="7" width="4" height="1" fill="#6e2c8c"/><rect x="19" y="5" width="1" height="2" fill="#6e2c8c"/><rect x="12" y="8" width="4" height="4" fill="#a048c8"/><rect x="12" y="8" width="4" height="1" fill="#c98ae6"/><rect x="12" y="9" width="1" height="2" fill="#c98ae6"/><rect x="12" y="11" width="4" height="1" fill="#6e2c8c"/><rect x="15" y="9" width="1" height="2" fill="#6e2c8c"/><rect x="16" y="8" width="4" height="4" fill="#a048c8"/><rect x="16" y="8" width="4" height="1" fill="#c98ae6"/><rect x="16" y="9" width="1" height="2" fill="#c98ae6"/><rect x="16" y="11" width="4" height="1" fill="#6e2c8c"/><rect x="19" y="9" width="1" height="2" fill="#6e2c8c"/><rect x="20" y="8" width="4" height="4" fill="#a048c8"/><rect x="20" y="8" width="4" height="1" fill="#c98ae6"/><rect x="20" y="9" width="1" height="2" fill="#c98ae6"/><rect x="20" y="11" width="4" height="1" fill="#6e2c8c"/><rect x="23" y="9" width="1" height="2" fill="#6e2c8c"/><rect x="24" y="12" width="4" height="4" fill="#18c8d8"/><rect x="24" y="12" width="4" height="1" fill="#7ee8f2"/><rect x="24" y="13" width="1" height="2" fill="#7ee8f2"/><rect x="24" y="15" width="4" height="1" fill="#0c8896"/><rect x="27" y="13" width="1" height="2" fill="#0c8896"/><rect x="8" y="16" width="4" height="4" fill="#3858d8"/><rect x="8" y="16" width="4" height="1" fill="#8aa0f0"/><rect x="8" y="17" width="1" height="2" fill="#8aa0f0"/><rect x="8" y="19" width="4" height="1" fill="#203a96"/><rect x="11" y="17" width="1" height="2" fill="#203a96"/><rect x="24" y="16" width="4" height="4" fill="#18c8d8"/><rect x="24" y="16" width="4" height="1" fill="#7ee8f2"/><rect x="24" y="17" width="1" height="2" fill="#7ee8f2"/><rect x="24" y="19" width="4" height="1" fill="#0c8896"/><rect x="27" y="17" width="1" height="2" fill="#0c8896"/><rect x="8" y="20" width="4" height="4" fill="#3858d8"/><rect x="8" y="20" width="4" height="1" fill="#8aa0f0"/><rect x="8" y="21" width="1" height="2" fill="#8aa0f0"/><rect x="8" y="23" width="4" height="1" fill="#203a96"/><rect x="11" y="21" width="1" height="2" fill="#203a96"/><rect x="12" y="20" width="4" height="4" fill="#f0d020"/><rect x="12" y="20" width="4" height="1" fill="#fbec80"/><rect x="12" y="21" width="1" height="2" fill="#fbec80"/><rect x="12" y="23" width="4" height="1" fill="#a8900c"/><rect x="15" y="21" width="1" height="2" fill="#a8900c"/><rect x="16" y="20" width="4" height="4" fill="#f0d020"/><rect x="16" y="20" width="4" height="1" fill="#fbec80"/><rect x="16" y="21" width="1" height="2" fill="#fbec80"/><rect x="16" y="23" width="4" height="1" fill="#a8900c"/><rect x="19" y="21" width="1" height="2" fill="#a8900c"/><rect x="20" y="20" width="4" height="4" fill="#38b838"/><rect x="20" y="20" width="4" height="1" fill="#86dc86"/><rect x="20" y="21" width="1" height="2" fill="#86dc86"/><rect x="20" y="23" width="4" height="1" fill="#1e781e"/><rect x="23" y="21" width="1" height="2" fill="#1e781e"/><rect x="24" y="20" width="4" height="4" fill="#18c8d8"/><rect x="24" y="20" width="4" height="1" fill="#7ee8f2"/><rect x="24" y="21" width="1" height="2" fill="#7ee8f2"/><rect x="24" y="23" width="4" height="1" fill="#0c8896"/><rect x="27" y="21" width="1" height="2" fill="#0c8896"/><rect x="4" y="24" width="4" height="4" fill="#3858d8"/><rect x="4" y="24" width="4" height="1" fill="#8aa0f0"/><rect x="4" y="25" width="1" height="2" fill="#8aa0f0"/><rect x="4" y="27" width="4" height="1" fill="#203a96"/><rect x="7" y="25" width="1" height="2" fill="#203a96"/><rect x="8" y="24" width="4" height="4" fill="#3858d8"/><rect x="8" y="24" width="4" height="1" fill="#8aa0f0"/><rect x="8" y="25" width="1" height="2" fill="#8aa0f0"/><rect x="8" y="27" width="4" height="1" fill="#203a96"/><rect x="11" y="25" width="1" height="2" fill="#203a96"/><rect x="12" y="24" width="4" height="4" fill="#f0d020"/><rect x="12" y="24" width="4" height="1" fill="#fbec80"/><rect x="12" y="25" width="1" height="2" fill="#fbec80"/><rect x="12" y="27" width="4" height="1" fill="#a8900c"/><rect x="15" y="25" width="1" height="2" fill="#a8900c"/><rect x="16" y="24" width="4" height="4" fill="#f0d020"/><rect x="16" y="24" width="4" height="1" fill="#fbec80"/><rect x="16" y="25" width="1" height="2" fill="#fbec80"/><rect x="16" y="27" width="4" height="1" fill="#a8900c"/><rect x="19" y="25" width="1" height="2" fill="#a8900c"/><rect x="20" y="24" width="4" height="4" fill="#38b838"/><rect x="20" y="24" width="4" height="1" fill="#86dc86"/><rect x="20" y="25" width="1" height="2" fill="#86dc86"/><rect x="20" y="27" width="4" height="1" fill="#1e781e"/><rect x="23" y="25" width="1" height="2" fill="#1e781e"/><rect x="24" y="24" width="4" height="4" fill="#18c8d8"/><rect x="24" y="24" width="4" height="1" fill="#7ee8f2"/><rect x="24" y="25" width="1" height="2" fill="#7ee8f2"/><rect x="24" y="27" width="4" height="1" fill="#0c8896"/><rect x="27" y="25" width="1" height="2" fill="#0c8896"/></svg>
